<svg xmlns="http://www.w3.org/2000/svg" width="600" height="600" viewBox="0 0 600 600"><path d="M295 0L302 8L308 11L313 12L323 8L327 0M600 435L585 426L570 423L561 426L559 430L558 438L560 449L568 464L581 479L600 496M0 499L19 511L30 514L38 511L41 502L38 490L28 472L15 454L0 438M329 600L328 589L323 577L313 571L306 570L298 573L293 581L292 589L294 600M136 14L131 19L128 26L126 42L127 57L128 65L132 71L136 73L143 74L155 70L165 64L171 57L172 49L167 34L158 22L147 15L140 13L136 14M555 126L547 133L540 150L535 170L534 177L536 183L540 186L543 186L562 175L574 163L577 151L575 140L570 130L562 125L555 126M366 228L360 234L358 241L359 249L362 254L370 259L377 258L384 253L386 245L384 238L378 230L374 227L366 228M143 351L134 358L127 370L125 381L126 392L132 404L143 414L155 418L166 417L175 411L181 400L183 385L181 370L176 358L166 350L155 347L143 351M121 0L115 11L109 57L97 94L95 106L95 113L98 122L102 126L109 128L117 126L125 121L144 102L154 94L166 88L191 79L196 75L197 72L192 53L177 26L164 11L149 0M279 0L286 15L292 23L302 28L313 30L325 28L336 22L343 13L348 0M600 422L581 411L570 407L558 406L551 407L545 411L541 419L541 426L545 449L555 468L572 487L600 511M0 514L23 529L42 535L49 534L53 532L58 525L59 517L53 494L41 472L21 445L0 424M139 600L127 600M349 600L348 577L345 570L340 561L333 555L325 550L306 547L290 551L283 556L279 561L276 577L278 600M223 86L220 87L218 91L219 98L225 113L234 125L242 129L249 128L253 124L255 113L253 101L245 91L234 86L223 86M551 105L543 110L536 121L508 185L506 196L506 208L509 216L517 223L528 223L543 217L585 185L592 177L596 170L597 158L594 143L588 128L582 117L574 108L566 104L558 103L551 105M362 207L351 214L345 223L341 238L336 268L333 275L325 283L302 295L293 306L292 317L296 332L306 346L317 352L328 352L336 348L339 343L343 330L348 302L351 294L354 291L366 285L400 275L406 272L408 268L410 260L408 249L402 234L392 219L385 212L377 207L370 206L362 207M140 332L131 336L121 343L110 358L108 366L106 377L109 396L121 415L128 423L140 431L162 439L174 440L181 439L189 434L192 430L200 411L201 389L196 362L186 343L174 333L158 329L140 332M103 0L99 45L94 60L82 91L78 106L77 128L79 138L83 146L87 149L94 151L106 150L117 146L134 136L162 110L172 106L181 104L192 108L200 113L226 149L234 155L242 157L249 156L259 151L264 145L269 136L271 125L271 109L269 94L264 83L259 75L253 71L223 59L211 52L166 0M268 0L275 23L283 35L294 42L309 44L332 41L351 33L361 23L370 0M409 0L421 19L426 23L434 26L445 24L453 19L460 11L467 0M600 124L588 102L581 94L574 89L566 86L558 86L547 89L540 94L528 109L496 174L491 189L489 208L492 226L497 238L506 244L513 245L525 243L540 237L581 211L592 208L600 208M0 209L8 214L11 219L34 267L42 278L49 285L57 286L60 285L68 276L73 260L75 238L72 201L68 189L64 181L57 176L34 172L23 167L11 154L0 132M600 410L574 397L555 392L540 390L528 393L525 400L524 408L526 426L531 449L537 464L543 475L556 491L600 525M0 528L26 545L42 551L53 553L60 553L68 551L73 543L74 536L72 521L68 506L61 487L53 472L27 438L0 412M161 600L140 588L121 584L109 587L106 592L104 600M372 600L381 570L379 562L375 555L363 543L351 536L332 530L313 528L294 530L282 532L272 537L266 543L263 555L262 566L267 600M469 600L483 574L508 543L513 532L514 521L509 506L498 494L479 485L460 482L449 484L442 490L425 532L398 566L397 577L407 600M366 192L351 197L339 208L333 219L324 249L317 262L306 271L282 283L275 291L273 302L274 317L281 336L291 352L301 362L313 369L328 371L340 369L347 363L351 357L361 321L367 309L374 303L381 299L400 295L411 297L423 302L430 309L457 339L472 351L487 358L494 356L497 351L498 343L495 321L487 292L480 279L472 273L445 265L434 258L423 244L404 213L393 200L381 193L366 192M140 316L124 321L109 328L99 336L93 343L89 355L88 370L91 385L96 400L102 411L111 423L124 434L136 442L158 453L181 462L196 464L204 463L211 457L215 447L219 431L220 415L217 385L206 351L196 332L189 325L181 320L162 315L140 316M89 0L91 23L88 42L68 87L59 128L53 141L49 144L42 146L34 146L26 142L15 130L0 103M258 0L261 23L261 38L256 45L245 48L230 46L215 38L204 28L178 0M600 96L592 83L585 75L577 71L570 69L558 70L547 73L536 80L528 87L520 98L503 136L480 174L476 189L472 230L469 238L464 242L453 244L445 242L438 237L426 225L408 194L400 185L389 178L377 177L351 183L340 189L332 195L324 208L312 242L302 253L294 257L283 260L272 259L264 255L257 247L250 234L245 215L244 200L245 192L250 185L272 163L280 147L283 125L281 75L283 68L286 64L298 59L325 55L355 52L370 55L377 59L384 68L404 118L411 127L419 128L423 125L427 117L433 83L438 68L446 57L471 30L486 0M0 239L11 257L34 315L60 354L81 400L92 419L102 430L116 442L186 483L219 506L230 516L236 525L243 540L257 600M600 398L581 389L543 376L532 370L525 363L517 352L511 336L505 309L503 291L504 279L508 272L513 266L522 260L577 232L589 231L600 235M0 545L23 559L64 572L75 577L83 587L88 600M174 600L155 585L109 563L99 555L91 540L69 483L57 459L44 442L27 423L11 408L0 400M488 600L500 581L527 551L541 521L547 515L555 515L566 518L581 527L600 542M170 128L181 127L189 130L198 140L205 155L208 174L204 208L204 226L208 250L213 268L223 281L238 292L247 302L272 351L286 370L298 378L317 385L336 387L351 384L358 378L362 372L371 336L378 321L385 315L392 312L400 312L411 315L426 325L457 357L490 385L500 396L508 411L513 434L515 453L512 464L506 468L494 468L442 454L426 454L421 457L415 464L408 491L402 502L396 508L385 512L283 508L268 505L255 498L250 491L246 475L244 423L239 396L217 336L205 313L195 306L181 302L162 302L125 304L109 302L98 296L92 283L88 260L86 215L87 195L91 181L102 170L137 151L170 128M73 0L76 8L78 19L75 38L56 75L45 103L38 113L30 114L24 109L19 102L11 87L0 54M246 0L246 15L243 23L238 28L230 29L223 27L211 20L191 0M600 45L596 39L592 37L585 37L540 59L525 68L517 75L512 83L497 117L487 133L472 146L460 149L457 147L455 143L452 125L452 102L455 87L462 72L479 52L486 42L504 0M0 272L26 342L74 423L84 434L98 444L165 483L183 498L203 517L220 536L232 555L241 577L246 600M600 385L556 370L543 363L536 357L528 347L521 332L517 317L515 302L518 287L525 276L536 268L555 258L570 253L581 252L592 257L600 265M0 571L11 576L53 586L64 592L71 600M187 600L166 581L121 555L107 543L94 521L73 464L60 438L47 423L28 404L15 394L0 387M506 600L521 584L562 552L570 551L577 553L600 569M317 68L332 66L347 67L358 72L366 78L375 91L382 109L386 128L387 143L382 155L374 161L333 177L320 185L311 196L304 219L298 230L291 236L283 237L275 233L270 226L266 215L267 204L272 192L288 174L292 162L294 147L292 102L296 83L302 75L317 68M158 158L166 157L174 158L181 166L184 174L191 242L191 268L185 279L174 286L151 290L128 289L121 287L113 282L107 275L102 264L97 234L96 219L98 204L104 189L113 179L132 168L158 158M445 169L449 170L451 174L454 189L451 204L449 207L445 209L441 208L435 200L432 192L431 185L434 177L438 173L445 169M396 331L408 331L419 337L479 399L486 408L491 419L493 430L490 438L483 442L468 440L423 421L390 411L385 408L382 381L382 355L387 340L392 333L396 331M283 400L298 400L347 406L374 410L381 412L384 423L386 453L383 468L377 478L371 483L362 487L336 488L306 485L294 481L287 476L281 468L277 460L273 434L273 419L275 408L279 402L283 400M229 0L226 4L223 6L215 4L208 0M0 311L7 336L9 355L7 362L0 367M600 368L585 367L570 364L558 360L547 352L538 343L532 333L528 321L526 309L529 294L536 284L551 274L566 270L577 271L585 275L592 284L600 300M204 600L173 574L128 547L112 532L100 509L94 483L95 472L99 468L106 467L125 472L143 482L162 494L178 509L204 540L219 561L228 581L230 600M536 3L541 4L546 8L548 11L547 20L544 26L540 30L532 34L525 34L521 31L519 26L521 17L527 8L536 3M42 11L49 11L53 15L54 19L53 28L49 32L45 33L41 30L38 23L39 15L42 11M325 79L340 79L347 82L355 87L361 94L366 103L372 125L370 140L362 150L348 158L332 162L321 161L313 156L307 143L303 125L303 106L306 94L313 84L325 79M136 181L151 179L162 183L167 189L171 196L177 215L179 242L176 260L171 268L167 272L155 277L140 277L132 276L124 272L114 260L108 242L106 223L110 204L114 196L121 189L136 181M415 367L422 374L423 377L423 380L419 380L413 374L412 370L415 367M317 430L328 428L336 429L343 433L350 442L351 449L350 453L343 459L336 460L328 460L321 457L313 449L311 442L313 434L317 430M332 94L340 95L347 100L354 109L356 117L356 128L353 136L347 141L340 144L332 144L325 141L320 136L316 125L316 113L319 102L325 96L332 94M132 199L143 196L151 198L158 205L165 219L167 234L165 245L159 257L151 262L140 262L132 259L125 252L119 242L117 226L119 215L125 205L132 199M555 289L566 288L574 290L581 297L587 306L592 321L593 336L591 343L585 350L574 351L561 347L551 340L543 328L539 317L540 306L547 294L555 289M117 490L125 489L136 492L147 499L159 509L172 525L180 540L184 551L181 554L174 554L153 547L140 540L128 532L120 521L113 506L113 496L117 490" fill="none" stroke="#2F5233" stroke-width="1.1" stroke-opacity="0.06"/></svg>